<?xml version="1.0" encoding="UTF-8"?>
<svg width="228px" height="29px" viewBox="0 0 228 29" version="1.1" xmlns="http://www.w3.org/2000/svg" xmlns:xlink="http://www.w3.org/1999/xlink">
    <!-- Generator: Sketch 48.2 (47327) - http://www.bohemiancoding.com/sketch -->
    <title>Group 484</title>
    <desc>Created with Sketch.</desc>
    <defs>
        <polygon id="path-1" points="0 86 269.291 86 269.291 0.961 0 0.961"></polygon>
        <polygon id="path-3" points="0 86 269.291 86 269.291 0.961 0 0.961"></polygon>
        <polygon id="path-5" points="0 86 269.291 86 269.291 0.961 0 0.961"></polygon>
        <polygon id="path-7" points="0 86 269.291 86 269.291 0.961 0 0.961"></polygon>
        <polygon id="path-9" points="0 86 269.291 86 269.291 0.961 0 0.961"></polygon>
        <polygon id="path-11" points="0 86 269.291 86 269.291 0.961 0 0.961"></polygon>
        <polygon id="path-13" points="0 86 269.291 86 269.291 0.961 0 0.961"></polygon>
        <polygon id="path-15" points="0 86 269.291 86 269.291 0.961 0 0.961"></polygon>
        <polygon id="path-17" points="0 86 269.291 86 269.291 0.961 0 0.961"></polygon>
        <polygon id="path-19" points="0 86 269.291 86 269.291 0.961 0 0.961"></polygon>
        <polygon id="path-21" points="0 86 269.291 86 269.291 0.961 0 0.961"></polygon>
        <polygon id="path-23" points="0 86 269.291 86 269.291 0.961 0 0.961"></polygon>
        <polygon id="path-25" points="0 86 269.291 86 269.291 0.961 0 0.961"></polygon>
    </defs>
    <g id="Page-1" stroke="none" stroke-width="1" fill="none" fill-rule="evenodd">
        <g id="Group-484" transform="translate(-21.000000, -19.000000)">
            <g id="Fill-471-Clipped" transform="translate(0.000000, 0.039400)">
                <mask id="mask-2" fill="white">
                    <use xlink:href="#path-1"></use>
                </mask>
                <g id="path-1"></g>
                <polygon id="Fill-471" fill="#000206" fill-rule="nonzero" mask="url(#mask-2)" points="41.342 46.4849 41.342 19.7009 46.147 19.7009 46.147 42.1439 55.735 42.1439 55.735 46.4849"></polygon>
            </g>
            <g id="Fill-472-Clipped" transform="translate(0.000000, 0.039400)">
                <mask id="mask-4" fill="white">
                    <use xlink:href="#path-3"></use>
                </mask>
                <g id="path-1"></g>
                <path d="M65.4582,43.107 C68.5332,43.107 70.4152,41.72 70.4152,39.261 L70.4152,37.111 C70.2242,37.339 69.8762,37.532 69.4552,37.689 C68.5712,37.994 67.9932,38.072 66.1482,38.264 C63.4592,38.57 62.1142,39.416 62.1142,40.759 C62.1142,42.258 63.3422,43.107 65.4582,43.107 M65.9992,34.692 C69.2652,34.382 70.4152,33.958 70.4152,32.46 C70.4152,31.271 69.3372,30.346 67.1872,30.346 C65.1142,30.346 63.3832,31.19 61.9982,32.881 L59.1582,30.461 C61.0392,27.81 63.6902,26.504 67.1122,26.504 C71.9152,26.504 74.9122,28.81 74.9122,32.767 L74.9122,41.337 L74.9122,42.836 L74.9122,46.409 L74.9122,46.833 L71.3392,46.833 L71.3392,44.641 C69.9942,46.22 67.8012,47.024 64.7662,47.024 C60.5012,47.024 57.6182,44.681 57.6182,41.145 C57.6182,37.187 60.2682,35.192 65.9992,34.692" id="Fill-472" fill="#000206" fill-rule="nonzero" mask="url(#mask-4)"></path>
            </g>
            <g id="Fill-473-Clipped" transform="translate(0.000000, 0.039400)">
                <mask id="mask-6" fill="white">
                    <use xlink:href="#path-5"></use>
                </mask>
                <g id="path-1"></g>
                <path d="M92.3009,41.0288 C93.4139,39.9138 93.9549,38.4938 93.9549,36.8028 C93.9549,35.1128 93.4139,33.6908 92.3009,32.5738 C91.2269,31.4598 89.8819,30.8828 88.2309,30.8828 C86.5779,30.8828 85.1549,31.4598 83.9999,32.5738 C82.8849,33.6908 82.3089,35.1128 82.3089,36.8028 C82.3089,38.4938 82.8849,39.9138 83.9999,41.0288 C85.1549,42.1438 86.5779,42.7208 88.2309,42.7208 C89.8819,42.7208 91.2269,42.1438 92.3009,41.0288 Z M78.0449,46.4848 L78.0449,19.7008 L82.6549,19.7008 L82.6549,29.9248 C83.3109,28.0418 85.6549,26.6958 88.8439,26.6958 C91.5719,26.6958 93.8779,27.6588 95.7229,29.6188 C97.6059,31.5388 98.5269,33.9198 98.5269,36.8028 C98.5269,39.6868 97.6059,42.0668 95.7229,44.0298 C93.8779,45.9478 91.5719,46.9118 88.8439,46.9118 C85.6549,46.9118 83.3109,45.5638 82.6549,43.6818 L82.6549,46.4848 L78.0449,46.4848 Z" id="Fill-473" fill="#000206" fill-rule="nonzero" mask="url(#mask-6)"></path>
            </g>
            <g id="Fill-474-Clipped" transform="translate(0.000000, 0.039400)">
                <mask id="mask-8" fill="white">
                    <use xlink:href="#path-7"></use>
                </mask>
                <g id="path-1"></g>
                <path d="M115.4347,41.1451 C116.5907,39.9541 117.1667,38.5311 117.1667,36.8031 C117.1667,35.0711 116.5907,33.6491 115.4347,32.4981 C114.2867,31.3051 112.8607,30.7291 111.1707,30.7291 C109.4397,30.7291 108.0207,31.3051 106.8657,32.4981 C105.7517,33.6491 105.1747,35.0711 105.1747,36.8031 C105.1747,38.5311 105.7517,39.9541 106.8657,41.1451 C108.0207,42.3001 109.4397,42.8731 111.1707,42.8731 C112.8607,42.8731 114.2867,42.3001 115.4347,41.1451 M100.6027,36.8031 C100.6027,33.9201 101.6407,31.4591 103.6747,29.4991 C105.7117,27.5411 108.2107,26.5421 111.1707,26.5421 C114.1307,26.5421 116.6287,27.5411 118.6647,29.4991 C120.7037,31.4591 121.7407,33.9201 121.7407,36.8031 C121.7407,39.6871 120.7037,42.1441 118.6647,44.1061 C116.6287,46.0651 114.1307,47.0631 111.1707,47.0631 C108.2107,47.0631 105.7117,46.0651 103.6747,44.1061 C101.6407,42.1441 100.6027,39.6871 100.6027,36.8031" id="Fill-474" fill="#000206" fill-rule="nonzero" mask="url(#mask-8)"></path>
            </g>
            <g id="Fill-475-Clipped" transform="translate(0.000000, 0.039400)">
                <mask id="mask-10" fill="white">
                    <use xlink:href="#path-9"></use>
                </mask>
                <g id="path-1"></g>
                <path d="M123.8146,46.4849 L123.8146,27.1169 L128.3866,27.1169 L128.3866,29.9999 C129.3086,27.9619 131.4236,26.7349 134.1516,26.7349 C134.6886,26.7349 135.1486,26.7709 135.5366,26.8519 L135.5366,31.3049 C134.9596,31.1899 134.3066,31.1149 133.6156,31.1149 C130.4236,31.1149 128.3866,33.1129 128.3866,36.3059 L128.3866,46.4849 L123.8146,46.4849 Z" id="Fill-475" fill="#000206" fill-rule="nonzero" mask="url(#mask-10)"></path>
            </g>
            <g id="Fill-476-Clipped" transform="translate(0.000000, 0.039400)">
                <mask id="mask-12" fill="white">
                    <use xlink:href="#path-11"></use>
                </mask>
                <g id="path-1"></g>
                <path d="M155.8908,31.3052 L155.8908,27.1172 L155.8908,19.7012 L160.5028,19.7012 L160.5028,27.1172 L164.7678,27.1172 L164.7678,31.3052 L160.5028,31.3052 L160.5028,39.9532 C160.5028,42.0662 161.2358,42.8362 162.9218,42.8362 C163.5018,42.8362 164.0368,42.7982 164.5368,42.6842 L164.5368,46.7962 C163.8848,46.9472 163.0768,47.0232 162.1558,47.0232 C157.9678,47.0232 155.8908,44.8352 155.8908,40.4522 L155.8908,31.3052 Z" id="Fill-476" fill="#000206" fill-rule="nonzero" mask="url(#mask-12)"></path>
            </g>
            <g id="Fill-477-Clipped" transform="translate(0.000000, 0.039400)">
                <mask id="mask-14" fill="white">
                    <use xlink:href="#path-13"></use>
                </mask>
                <g id="path-1"></g>
                <path d="M181.5842,41.1451 C182.7352,39.9541 183.3132,38.5311 183.3132,36.8031 C183.3132,35.0711 182.7352,33.6491 181.5842,32.4981 C180.4302,31.3051 179.0112,30.7291 177.3182,30.7291 C175.5872,30.7291 174.1682,31.3051 173.0142,32.4981 C171.8982,33.6491 171.3232,35.0711 171.3232,36.8031 C171.3232,38.5311 171.8982,39.9541 173.0142,41.1451 C174.1682,42.3001 175.5872,42.8731 177.3182,42.8731 C179.0112,42.8731 180.4302,42.3001 181.5842,41.1451 M166.7492,36.8031 C166.7492,33.9201 167.7882,31.4591 169.8262,29.4991 C171.8602,27.5411 174.3592,26.5421 177.3182,26.5421 C180.2772,26.5421 182.7752,27.5411 184.8122,29.4991 C186.8482,31.4591 187.8872,33.9201 187.8872,36.8031 C187.8872,39.6871 186.8482,42.1441 184.8122,44.1061 C182.7752,46.0651 180.2772,47.0631 177.3182,47.0631 C174.3592,47.0631 171.8602,46.0651 169.8262,44.1061 C167.7882,42.1441 166.7492,39.6871 166.7492,36.8031" id="Fill-477" fill="#000206" fill-rule="nonzero" mask="url(#mask-14)"></path>
            </g>
            <g id="Fill-478-Clipped" transform="translate(0.000000, 0.039400)">
                <mask id="mask-16" fill="white">
                    <use xlink:href="#path-15"></use>
                </mask>
                <g id="path-1"></g>
                <path d="M189.8664,46.4849 L189.8664,27.1169 L194.4374,27.1169 L194.4374,29.9999 C195.3604,27.9619 197.4744,26.7349 200.2014,26.7349 C200.7424,26.7349 201.2004,26.7709 201.5834,26.8519 L201.5834,31.3049 C201.0124,31.1899 200.3594,31.1149 199.6654,31.1149 C196.4774,31.1149 194.4374,33.1129 194.4374,36.3059 L194.4374,46.4849 L189.8664,46.4849 Z" id="Fill-478" fill="#000206" fill-rule="nonzero" mask="url(#mask-16)"></path>
            </g>
            <g id="Fill-479-Clipped" transform="translate(0.000000, 0.039400)">
                <mask id="mask-18" fill="white">
                    <use xlink:href="#path-17"></use>
                </mask>
                <g id="path-1"></g>
                <path d="M204.045,46.485 L208.658,46.485 L208.658,27.117 L204.045,27.117 L204.045,46.485 Z M203.581,22.124 C203.581,20.586 204.813,19.393 206.35,19.393 C207.85,19.393 209.079,20.586 209.079,22.124 C209.079,23.658 207.85,24.854 206.35,24.854 C204.813,24.854 203.581,23.658 203.581,22.124 Z" id="Fill-479" fill="#000206" fill-rule="nonzero" mask="url(#mask-18)"></path>
            </g>
            <g id="Fill-480-Clipped" transform="translate(0.000000, 0.039400)">
                <mask id="mask-20" fill="white">
                    <use xlink:href="#path-19"></use>
                </mask>
                <g id="path-1"></g>
                <path d="M143.592,43.107 C146.667,43.107 148.549,41.72 148.549,39.261 L148.549,37.111 C148.359,37.339 148.009,37.532 147.589,37.689 C146.707,37.994 146.131,38.072 144.286,38.264 C141.593,38.57 140.249,39.416 140.249,40.759 C140.249,42.258 141.477,43.107 143.592,43.107 M144.131,34.692 C147.398,34.382 148.549,33.958 148.549,32.46 C148.549,31.271 147.473,30.346 145.323,30.346 C143.248,30.346 141.518,31.19 140.133,32.881 L137.291,30.461 C139.174,27.81 141.826,26.504 145.246,26.504 C150.047,26.504 153.049,28.81 153.049,32.767 L153.049,41.337 L153.049,42.836 L153.049,46.409 L153.049,46.833 L149.472,46.833 L149.472,44.641 C148.129,46.22 145.94,47.024 142.902,47.024 C138.637,47.024 135.754,44.681 135.754,41.145 C135.754,37.187 138.404,35.192 144.131,34.692" id="Fill-480" fill="#000206" fill-rule="nonzero" mask="url(#mask-20)"></path>
            </g>
            <g id="Fill-481-Clipped" transform="translate(0.000000, 0.039400)">
                <mask id="mask-22" fill="white">
                    <use xlink:href="#path-21"></use>
                </mask>
                <g id="path-1"></g>
                <path d="M218.4914,43.107 C221.5674,43.107 223.4484,41.72 223.4484,39.261 L223.4484,37.111 C223.2584,37.339 222.9114,37.532 222.4894,37.689 C221.6054,37.994 221.0314,38.072 219.1854,38.264 C216.4964,38.57 215.1474,39.416 215.1474,40.759 C215.1474,42.258 216.3794,43.107 218.4914,43.107 M219.0334,34.692 C222.2984,34.382 223.4484,33.958 223.4484,32.46 C223.4484,31.271 222.3714,30.346 220.2204,30.346 C218.1484,30.346 216.4174,31.19 215.0354,32.881 L212.1914,30.461 C214.0754,27.81 216.7264,26.504 220.1474,26.504 C224.9474,26.504 227.9484,28.81 227.9484,32.767 L227.9484,41.337 L227.9484,42.836 L227.9484,46.409 L227.9484,46.833 L224.3734,46.833 L224.3734,44.641 C223.0274,46.22 220.8374,47.024 217.8024,47.024 C213.5394,47.024 210.6524,44.681 210.6524,41.145 C210.6524,37.187 213.3054,35.192 219.0334,34.692" id="Fill-481" fill="#000206" fill-rule="nonzero" mask="url(#mask-22)"></path>
            </g>
            <g id="Fill-482-Clipped" transform="translate(0.000000, 0.039400)">
                <mask id="mask-24" fill="white">
                    <use xlink:href="#path-23"></use>
                </mask>
                <g id="path-1"></g>
                <polygon id="Fill-482" fill="#F9E342" fill-rule="nonzero" mask="url(#mask-24)" points="26.0939 36.753 33.7449 29.105 31.1959 26.554 20.9939 36.753 31.1959 46.956 33.7449 44.406"></polygon>
            </g>
            <g id="Fill-483-Clipped" transform="translate(0.000000, 0.039400)">
                <mask id="mask-26" fill="white">
                    <use xlink:href="#path-25"></use>
                </mask>
                <g id="path-1"></g>
                <polygon id="Fill-483" fill="#F9E342" fill-rule="nonzero" mask="url(#mask-26)" points="243.1974 36.753 235.5464 29.105 238.0974 26.554 248.2974 36.753 238.0974 46.956 235.5464 44.406"></polygon>
            </g>
        </g>
    </g>
</svg>